<?xml version="1.0" encoding="UTF-8"?><svg id="Layer_1" xmlns="http://www.w3.org/2000/svg" viewBox="0 0 1008.9 259.17"><defs><style>.cls-1{font-family:GillSans-UltraBold, 'Gill Sans Ultra Bold';font-size:80px;}.cls-1,.cls-2{font-weight:700;}.cls-3,.cls-4{fill:#fff;}.cls-3,.cls-4,.cls-5,.cls-6{stroke-miterlimit:10;}.cls-3,.cls-4,.cls-6{stroke:#231f20;}.cls-3,.cls-6{stroke-width:6px;}.cls-4{stroke-width:5px;}.cls-7{fill:#009444;}.cls-2{fill:#00a651;font-family:Bahnschrift-Bold, Bahnschrift;font-size:23.74px;font-variation-settings:'wght' 700, 'wdth' 100;}.cls-5{stroke:#006838;stroke-width:2px;}.cls-5,.cls-6{fill:none;}.cls-8{fill:#006838;}.cls-9{fill:#231f20;}</style></defs><text class="cls-1" transform="translate(0 227.1)"><tspan class="cls-9" x="0" y="0">P</tspan><tspan class="cls-8" x="66.64" y="0">FB</tspan><tspan class="cls-9" x="191.68" y="0">M</tspan></text><path class="cls-4" d="m870.09,37.13v206.37h-33.22c9.81-5.3,17.06-14.82-22.24-3.39l-36.05-46.16,40.35-163.73-.52-25.63,51.67,32.54Z"/><polygon class="cls-4" points="920.25 246.95 871.34 246.95 871.34 5.74 920.25 38.27 920.25 246.95"/><polygon class="cls-4" points="971.07 243.5 922.16 243.5 922.16 6.89 971.07 34.82 971.07 243.5"/><path class="cls-3" d="m1005.9,220.15c0,15.39-12.32,27.88-27.51,27.88h-159.45c1.94,0,3.83-.15,5.68-.43.05-.01.09-.01.13-.02,4.33-.67,8.41-2.07,12.12-4.08,9.81-5.3,17.06-14.82,19.4-26.16.55-2.57.82-5.23.82-7.96,0-16.52-10.23-30.62-24.64-36.13-1.03-.4-2.08-.76-3.14-1.06-.01-.01-.01-.02,0-.02l40.78,5.63,1.25.17,48.91,6.76,1.91.26,48.91,6.75,4.73.66,12.41,1.7c5.17,2,9.59,5.54,12.72,10.08,3.13,4.51,4.96,10.03,4.96,15.97Z"/><path class="cls-3" d="m820.22,171.45l-.05-5.27-2.42-136.25-40.74-23.24.08,203.1c-.17,2.19-.97,17.51,11.49,28.82,12.23,11.09,27.84,9.75,30.36,9.7,1.94,0,3.83-.15,5.68-.43.05-.01.09-.01.13-.02,4.33-.67,8.41-2.07,12.12-4.08,9.81-5.3,17.06-14.82,19.4-26.16l-35.1-3.75-3.37-.37c-12.47-2.82-20.3-13.93-17.75-24.95,2.5-10.79,14.2-18.24,26.71-16.83"/><line class="cls-6" x1="858.59" y1="217.58" x2="856.27" y2="217.34"/><path class="cls-7" d="m978.74,236.24l-42.05-2.2c2.03-2.73,5.63-8.37,6.58-16.25.99-8.26-1.45-14.71-2.85-17.75,13.91,1.67,27.83,3.34,41.74,5.02,1.19,3.09,2.8,8.56,2.15,15.4-.7,7.4-3.69,12.89-5.57,15.77Z"/><line class="cls-5" x1="871.24" y1="197.89" x2="920.35" y2="202.2"/><line class="cls-5" x1="875.5" y1="210.31" x2="925.28" y2="214.68"/><line class="cls-5" x1="868.46" y1="222.72" x2="917.57" y2="227.04"/><text class="cls-2" transform="translate(789.4 56.15) scale(1.13 1)"><tspan x="0" y="0">$</tspan></text><text class="cls-2" transform="translate(840.38 60.25) scale(1.13 1)"><tspan x="0" y="0">$</tspan></text><text class="cls-2" transform="translate(885.89 60.25) scale(1.13 1)"><tspan x="0" y="0">$</tspan></text><text class="cls-2" transform="translate(936.69 62.31) scale(1.13 1)"><tspan x="0" y="0">$</tspan></text></svg>